Coordinates
version=1
nRows=17
nColumns=38
inDegrees=no

Units are S.I. units (second, meters, Newtons, ...)
If the header above contains a line with 'inDegrees', this indicates whether rotational values are in degrees (yes) or radians (no).

endheader
time	pelvis_tilt	pelvis_list	pelvis_rotation	pelvis_tx	pelvis_ty	pelvis_tz	hip_flexion_r	hip_adduction_r	hip_rotation_r	knee_angle_r	ankle_angle_r	subtalar_angle_r	mtp_angle_r	hip_flexion_l	hip_adduction_l	hip_rotation_l	knee_angle_l	ankle_angle_l	subtalar_angle_l	mtp_angle_l	lumbar_extension	lumbar_bending	lumbar_rotation	arm_flex_r	arm_add_r	arm_rot_r	elbow_flex_r	pro_sup_r	wrist_flex_r	wrist_dev_r	arm_flex_l	arm_add_l	arm_rot_l	elbow_flex_l	pro_sup_l	wrist_flex_l	wrist_dev_l
0	-0.793248	1.31415	2.42971	0.777002	-0.280907	1.00026	0.643847	-0.189714	0.159401	1.08506	-0.0425154	0	0	0.445559	0.0142705	-0.25776	1.33345	-0.242759	0	0	-0.0401006	-0.200088	0.179	0.0493275	-0.480599	1.10902	0.738705	0.379654	0	0	0.107276	-0.43166	0.877596	0.560801	0.563533	0	0
0.01	-0.791058	1.30569	2.42648	0.776149	-0.271927	1.00102	0.637898	-0.199844	0.152179	1.07987	-0.0375973	0	0	0.476876	0.0186788	-0.266912	1.32569	-0.225158	0	0	-0.0335811	-0.205594	0.173225	0.0565101	-0.475025	1.11558	0.730674	0.383341	0	0	0.10084	-0.431219	0.860667	0.560694	0.571783	0	0
0.02	-0.800615	1.30102	2.43362	0.775149	-0.262793	1.00194	0.627754	-0.209334	0.144461	1.07726	-0.033798	0	0	0.501028	0.0212231	-0.27892	1.31284	-0.215163	0	0	-0.035277	-0.211414	0.175305	0.0576525	-0.473683	1.1104	0.728771	0.385972	0	0	0.10244	-0.43057	0.853902	0.562443	0.575643	0	0
0.03	-0.810774	1.2968	2.44133	0.774174	-0.253616	1.00279	0.617329	-0.218137	0.138133	1.07536	-0.0310742	0	0	0.522964	0.0226623	-0.292078	1.29478	-0.210272	0	0	-0.0371156	-0.216979	0.177367	0.0596589	-0.472496	1.10797	0.726737	0.387494	0	0	0.104555	-0.430261	0.849932	0.564154	0.577998	0	0
0.04	-0.819558	1.29231	2.44824	0.773056	-0.244483	1.00351	0.607304	-0.227266	0.132136	1.07308	-0.0271314	0	0	0.544166	0.0251314	-0.303686	1.27159	-0.208558	0	0	-0.0389305	-0.222486	0.178668	0.06144	-0.471272	1.10432	0.724679	0.390373	0	0	0.106367	-0.429746	0.844416	0.56611	0.582723	0	0
0.05	-0.826372	1.28757	2.45278	0.771898	-0.235363	1.00402	0.598339	-0.235717	0.127822	1.07149	-0.0224282	0	0	0.564431	0.0274074	-0.315774	1.24396	-0.209377	0	0	-0.0400646	-0.227774	0.180153	0.0628766	-0.470237	1.09964	0.7227	0.3947	0	0	0.107674	-0.428788	0.83786	0.567779	0.589096	0	0
0.06	-0.832469	1.28301	2.45617	0.770706	-0.226221	1.00436	0.589301	-0.243317	0.124756	1.06998	-0.0179423	0	0	0.582656	0.0287433	-0.32974	1.21249	-0.209199	0	0	-0.0408221	-0.232744	0.181967	0.0642083	-0.469387	1.09508	0.720603	0.399663	0	0	0.108753	-0.427664	0.83173	0.569002	0.593755	0	0
0.07	-0.838675	1.27962	2.46102	0.769321	-0.217121	1.00466	0.578696	-0.25054	0.120941	1.06822	-0.0128798	0	0	0.598315	0.0303347	-0.341973	1.178	-0.207665	0	0	-0.0431089	-0.236738	0.182677	0.0645633	-0.468985	1.08727	0.719377	0.407006	0	0	0.110447	-0.426117	0.826048	0.569868	0.599611	0	0
0.08	-0.846467	1.27791	2.46905	0.767757	-0.20816	1.00493	0.56588	-0.257708	0.11495	1.06587	-0.0085607	0	0	0.611229	0.0318713	-0.352744	1.14172	-0.205797	0	0	-0.0492106	-0.239746	0.183133	0.0635772	-0.470508	1.07529	0.721449	0.414723	0	0	0.114292	-0.424516	0.821472	0.57183	0.604453	0	0
0.09	-0.852206	1.27603	2.4744	0.766148	-0.199157	1.00498	0.554206	-0.264008	0.110346	1.06395	-0.00438518	0	0	0.622999	0.0335659	-0.363495	1.10307	-0.204097	0	0	-0.0545704	-0.242509	0.184225	0.0618616	-0.472231	1.06205	0.723768	0.424438	0	0	0.117504	-0.422405	0.815229	0.573583	0.610986	0	0
0.1	-0.860603	1.27644	2.48114	0.764195	-0.190319	1.00505	0.541147	-0.269052	0.106189	1.0627	0.000172765	0	0	0.632101	0.0368997	-0.369042	1.06306	-0.200384	0	0	-0.0669861	-0.248877	0.205163	0.0364308	-0.474982	1.00017	0.732196	0.452978	0	0	0.140367	-0.419663	0.837149	0.577912	0.611614	0	0
0.11	-0.862577	1.27272	2.48145	0.762616	-0.181139	1.00462	0.532682	-0.275226	0.104332	1.06186	0.00340168	0	0	0.644945	0.0438547	-0.370051	1.02163	-0.198939	0	0	-0.0692233	-0.249742	0.202713	0.0395731	-0.478966	0.998145	0.73648	0.455771	0	0	0.139586	-0.417242	0.831046	0.577674	0.612985	0	0
0.12	-0.866618	1.27053	2.48446	0.760827	-0.17203	1.00428	0.522964	-0.281196	0.10199	1.0622	0.00732221	0	0	0.653494	0.0520314	-0.367693	0.975605	-0.196476	0	0	-0.0707938	-0.252144	0.201745	0.0424496	-0.480758	0.998101	0.736904	0.457837	0	0	0.139994	-0.416118	0.827467	0.579346	0.615006	0	0
0.13	-0.867528	1.26818	2.48467	0.759017	-0.163036	1.00376	0.514333	-0.286303	0.100664	1.06296	0.0115515	0	0	0.660452	0.0611108	-0.362295	0.92489	-0.193449	0	0	-0.0718494	-0.254234	0.200567	0.0452531	-0.482202	0.997718	0.736972	0.460031	0	0	0.140438	-0.415121	0.824141	0.581013	0.61581	0	0
0.14	-0.865326	1.26554	2.48178	0.75717	-0.154149	1.003	0.506646	-0.291141	0.0990301	1.06276	0.0154001	0	0	0.666411	0.0716084	-0.351844	0.870044	-0.19067	0	0	-0.0719671	-0.256017	0.199462	0.0479251	-0.483668	0.997318	0.73697	0.462793	0	0	0.140858	-0.41394	0.821501	0.582308	0.616351	0	0
0.15	-0.860786	1.26266	2.47734	0.755152	-0.145304	1.00205	0.500027	-0.296788	0.0953419	1.06296	0.0185389	0	0	0.670393	0.0850736	-0.332678	0.809195	-0.189588	0	0	-0.0715701	-0.257576	0.197594	0.0499887	-0.485003	0.995502	0.737095	0.466149	0	0	0.140888	-0.412909	0.818661	0.583851	0.616996	0	0
0.16	-0.854106	1.25989	2.47158	0.753014	-0.136419	1.00096	0.494701	-0.302202	0.091667	1.06524	0.021211	0	0	0.670918	0.100284	-0.305635	0.741106	-0.191608	0	0	-0.0707032	-0.258586	0.195084	0.0515199	-0.486158	0.993009	0.737098	0.470789	0	0	0.140567	-0.412154	0.815761	0.585778	0.617236	0	0
